<?xml version="1.0" encoding="iso-8859-1"?>
<!-- Generator: Adobe Illustrator 19.0.0, SVG Export Plug-In . SVG Version: 6.00 Build 0)  -->
<svg version="1.1" id="Layer_1" xmlns="http://www.w3.org/2000/svg" xmlns:xlink="http://www.w3.org/1999/xlink" x="0px" y="0px"
	 viewBox="0 0 512 512" style="enable-background:new 0 0 512 512;" xml:space="preserve">
<path style="fill:#CD5838;" d="M485.867,177.701H26.133c-8.285,0-15.027,6.74-15.027,15.026V512h489.787V192.726
	C500.894,184.441,494.153,177.701,485.867,177.701z"/>
<path style="fill:#ECB45D;" d="M55.531,512v-67.748h167.15c16.586,0,30.427,7.945,33.319,23.71
	c2.892-15.763,16.733-23.71,33.319-23.71h167.15V512H55.531z"/>
<rect x="55.531" y="444.252" style="fill:#D6A355;" width="27.81" height="67.748"/>
<path style="fill:#E6E7E4;" d="M248.895,458.5c-6.271-8.349-15.825-13.138-26.214-13.138H55.531V148.301
	c0-8.285,6.74-15.026,15.027-15.026h370.883c8.285,0,15.027,6.74,15.027,15.026v297.061h-167.15
	c-10.389,0-19.944,4.789-26.214,13.138L256,467.961L248.895,458.5z"/>
<g>
	<path style="fill:#CED0CD;" d="M98.298,133.275h-27.74c-8.285,0-15.027,6.74-15.027,15.026v297.061h27.74V148.301
		C83.272,140.016,90.013,133.275,98.298,133.275z"/>
	<path style="fill:#CED0CD;" d="M441.442,133.275H256v334.686l7.105-9.461c6.271-8.349,15.825-13.138,26.214-13.138h167.15V148.301
		C456.469,140.016,449.728,133.275,441.442,133.275z"/>
</g>
<path style="fill:#ACABB1;" d="M227.047,300.98c-8.837,0-16.027-7.19-16.027-16.027v-58.385h89.961v58.385
	c0,8.837-7.19,16.027-16.027,16.027H227.047z"/>
<path style="fill:#898790;" d="M263.657,280.989c-8.837,0-16.027-7.19-16.027-16.027v-38.393h-36.61v58.385
	c0,8.837,7.19,16.027,16.027,16.027h57.907c8.837,0,16.027-7.19,16.027-16.027v-3.964H263.657z"/>
<path style="fill:#ECB45D;" d="M211.02,245.449v-20.988c0-18.534-8.139-36.507-22.329-49.309
	c-21.073-19.013-33.176-46.182-33.202-74.542c-0.051-53.409,43.28-98.509,96.593-100.537C253.392,0.023,254.698,0,255.999,0
	c26.132,0,50.886,9.977,69.703,28.094c19.867,19.127,30.81,44.845,30.81,72.417c0,28.398-12.103,55.604-33.204,74.642
	c-14.189,12.8-22.327,30.786-22.327,49.343v20.952H211.02z"/>
<path style="fill:#EAA03D;" d="M224.786,175.152c-21.073-19.013-33.176-46.182-33.202-74.542
	c-0.047-48.612,35.851-90.337,82.5-98.968C268.168,0.569,262.124,0,255.999,0c-1.301,0-2.606,0.023-3.917,0.073
	c-53.314,2.028-96.645,47.128-96.594,100.536c0.027,28.36,12.129,55.529,33.202,74.542c14.19,12.801,22.329,30.774,22.329,49.31
	v20.988h36.095v-20.988C247.115,205.926,238.976,187.953,224.786,175.152z"/>
<g>
	<path style="fill:#D6A355;" d="M211.575,469.796H100.512c-4.6,0-8.33,3.728-8.33,8.33s3.729,8.33,8.33,8.33h111.063
		c4.6,0,8.33-3.728,8.33-8.33S216.175,469.796,211.575,469.796z"/>
	<path style="fill:#D6A355;" d="M300.425,486.456h111.063c4.6,0,8.33-3.728,8.33-8.33s-3.729-8.33-8.33-8.33H300.425
		c-4.6,0-8.33,3.728-8.33,8.33S295.825,486.456,300.425,486.456z"/>
</g>
<path style="fill:#CD5838;" d="M281.775,164.373H264.33v13.883c0,4.601-3.729,8.33-8.33,8.33s-8.33-3.728-8.33-8.33v-13.883h-24.989
	c-4.6,0-8.33-3.728-8.33-8.33c0-4.601,3.729-8.33,8.33-8.33h58.308v-27.766h-50.765c-8.753,0-15.873-7.12-15.873-15.873V74.736
	c0-8.753,7.12-15.873,15.873-15.873h17.446V44.98c0-4.601,3.729-8.33,8.33-8.33s8.33,3.728,8.33,8.33v13.883h24.989
	c4.6,0,8.33,3.728,8.33,8.33s-3.729,8.33-8.33,8.33h-58.308v27.766h50.765c8.753,0,15.873,7.12,15.873,15.873V148.5
	C297.649,157.253,290.528,164.373,281.775,164.373z"/>
<g>
</g>
<g>
</g>
<g>
</g>
<g>
</g>
<g>
</g>
<g>
</g>
<g>
</g>
<g>
</g>
<g>
</g>
<g>
</g>
<g>
</g>
<g>
</g>
<g>
</g>
<g>
</g>
<g>
</g>
</svg>
